<?xml version="1.0" encoding="utf-8"?>
<!-- Generator: Adobe Illustrator 24.0.1, SVG Export Plug-In . SVG Version: 6.00 Build 0)  -->
<svg version="1.1" id="Layer_1" xmlns="http://www.w3.org/2000/svg" xmlns:xlink="http://www.w3.org/1999/xlink" x="0px" y="0px"
	 viewBox="0 0 256 256" style="enable-background:new 0 0 256 256;" xml:space="preserve">
<style type="text/css">
	.st0{fill:#FFFFFF;}
</style>
<g>
	<circle class="st0" cx="128" cy="128" r="128"/>
</g>
<g>
	<rect x="130.78" y="22.82" transform="matrix(0.7071 -0.7071 0.7071 0.7071 -22.2255 130.0246)" width="30.11" height="138.04"/>
	<path d="M107.68,33.1l96.9,96.9L184,150.59l-96.9-96.9L107.68,33.1 M107.68,31.68l-22,22L184,152l22-22L107.68,31.68L107.68,31.68z
		"/>
</g>
<g>
	<rect x="76.86" y="153.31" transform="matrix(0.7071 -0.7071 0.7071 0.7071 -76.3218 152.4676)" width="138.04" height="30.11"/>
	<path d="M184.04,109.62l20.59,20.59l-96.9,96.9l-20.59-20.59L184.04,109.62 M184.04,108.2l-98.32,98.32l22,22l98.32-98.32
		L184.04,108.2L184.04,108.2z"/>
</g>
</svg>
